# This file uses centimeters as units for non-parametric coordinates.

mtllib WhiteBoard.mtl
g default
v -9.456678 3.801385 -5.443239
v 6.521472 3.801385 -5.443239
v -9.456678 11.994579 -5.443239
v 6.521472 11.994579 -5.443239
v -9.456678 11.994579 -5.653708
v 6.521472 11.994579 -5.653708
v -9.456678 3.801385 -5.653708
v 6.521472 3.801385 -5.653708
v -9.285623 3.971706 -5.443239
v 6.350414 3.971706 -5.443239
v 6.350414 11.824259 -5.443239
v -9.285623 11.824259 -5.443239
v -9.456678 3.801385 -5.361155
v 6.521472 3.801385 -5.361155
v 6.350414 3.971706 -5.361155
v -9.285623 3.971706 -5.361155
v 6.521472 11.994579 -5.361155
v 6.350414 11.824259 -5.361155
v -9.456678 11.994579 -5.361155
v -9.285623 11.824259 -5.361155
v -9.285623 4.180225 -5.443239
v 6.350414 4.180225 -5.443239
v -9.285623 4.180225 -5.361155
v 6.350414 4.180225 -5.361155
v -9.285623 3.971706 -5.227922
v 6.350414 3.971706 -5.227922
v 6.350414 4.180225 -5.227922
v -9.285623 4.180225 -5.227922
vt 0.567400 0.074360
vt 0.567353 0.081745
vt 0.279871 0.079895
vt 0.279918 0.072510
vt 0.279937 0.069630
vt 0.567419 0.071479
vt 0.350229 0.184413
vt 0.350181 0.191798
vt 0.062699 0.189948
vt 0.062747 0.182564
vt 0.350163 0.194678
vt 0.062681 0.192829
vt 0.074757 0.173625
vt 0.350287 0.175398
vt 0.350268 0.178278
vt 0.074739 0.176505
vt 0.403584 0.147302
vt 0.128055 0.145529
vt 0.128073 0.142649
vt 0.403603 0.144421
vt 0.568614 0.937703
vt 0.565734 0.937662
vt 0.565838 0.930347
vt 0.568718 0.930387
vt 0.561059 0.937596
vt 0.561163 0.930280
vt 0.563748 0.951088
vt 0.560868 0.951047
vt 0.560972 0.943731
vt 0.563852 0.943772
vt 0.568527 0.943838
vt 0.568423 0.951154
vt 0.006875 0.052941
vt 0.567515 0.056549
vt 0.567467 0.063934
vt 0.006828 0.060326
vt 0.006894 0.050061
vt 0.567533 0.053669
vt 0.006674 0.084309
vt 0.567313 0.087917
vt 0.567266 0.095302
vt 0.006626 0.091694
vt 0.567247 0.098182
vt 0.006607 0.094575
vt 0.003726 0.970253
vt 0.560665 0.978170
vt 0.560624 0.981094
vt 0.003685 0.973176
vt 0.560556 0.985839
vt 0.003617 0.977922
vt 0.019097 0.019227
vt 0.567732 0.022757
vt 0.567714 0.025637
vt 0.019078 0.022107
vt 0.561316 0.932423
vt 0.004377 0.924505
vt 0.004444 0.919759
vt 0.561383 0.927677
vt 0.966079 0.890430
vt 0.016816 0.904682
vt 0.009658 0.427954
vt 0.958922 0.413702
vt 0.227968 0.375889
vt 0.008572 0.373569
vt 0.009762 0.261068
vt 0.229158 0.263388
vt 0.974458 0.199916
vt 0.632817 0.389192
vt 0.634457 0.383524
vt 0.968783 0.198300
vt 0.535761 0.214007
vt 0.541436 0.215623
vt 0.877402 0.024731
vt 0.875762 0.030399
vt 0.567622 0.039818
vt 0.018987 0.036288
vt 0.019034 0.028971
vt 0.567669 0.032501
vt 0.561119 0.946271
vt 0.004180 0.938354
vt 0.004286 0.930927
vt 0.561225 0.938844
vn 0.000000 0.000000 1.000000
vn 0.000000 0.000000 1.000000
vn 0.000000 0.000000 1.000000
vn 0.000000 0.000000 1.000000
vn 0.000000 1.000000 0.000000
vn 0.000000 1.000000 0.000000
vn 0.000000 1.000000 0.000000
vn 0.000000 1.000000 0.000000
vn 0.000000 0.000000 -1.000000
vn 0.000000 0.000000 -1.000000
vn 0.000000 0.000000 -1.000000
vn 0.000000 0.000000 -1.000000
vn 0.000000 -1.000000 0.000000
vn 0.000000 -1.000000 0.000000
vn 0.000000 -1.000000 0.000000
vn 0.000000 -1.000000 0.000000
vn 1.000000 0.000000 0.000000
vn 1.000000 0.000000 0.000000
vn 1.000000 0.000000 0.000000
vn 1.000000 0.000000 0.000000
vn -1.000000 0.000000 0.000000
vn -1.000000 0.000000 0.000000
vn -1.000000 0.000000 0.000000
vn -1.000000 0.000000 0.000000
vn 0.000000 0.000000 1.000000
vn 0.000000 0.000000 1.000000
vn 0.000000 0.000000 1.000000
vn 0.000000 0.000000 1.000000
vn 0.000000 0.000000 1.000000
vn 0.000000 0.000000 1.000000
vn 0.000000 0.000000 1.000000
vn 0.000000 0.000000 1.000000
vn 0.000000 -1.000000 0.000000
vn 0.000000 -1.000000 0.000000
vn 0.000000 1.000000 0.000000
vn 0.000000 1.000000 0.000000
vn 0.000000 1.000000 0.000000
vn 0.000000 1.000000 0.000000
vn 1.000000 0.000000 0.000000
vn 1.000000 0.000000 0.000000
vn -1.000000 0.000000 0.000000
vn -1.000000 0.000000 0.000000
vn -1.000000 0.000000 0.000000
vn -1.000000 0.000000 0.000000
vn 0.000000 1.000000 0.000000
vn 0.000000 1.000000 0.000000
vn 0.000000 -1.000000 0.000000
vn 0.000000 -1.000000 0.000000
vn 0.000000 -1.000000 0.000000
vn 0.000000 -1.000000 0.000000
vn -1.000000 0.000000 0.000000
vn -1.000000 0.000000 0.000000
vn 1.000000 0.000000 0.000000
vn 1.000000 0.000000 0.000000
vn 1.000000 0.000000 0.000000
vn 1.000000 0.000000 0.000000
vn 0.000000 0.000000 -1.000000
vn 0.000000 0.000000 -1.000000
vn 0.000000 0.000000 -1.000000
vn 0.000000 0.000000 -1.000000
vn -1.000000 0.000000 0.000000
vn -1.000000 0.000000 0.000000
vn -1.000000 0.000000 0.000000
vn -1.000000 0.000000 0.000000
vn 0.000000 0.000000 1.000000
vn 0.000000 0.000000 1.000000
vn 0.000000 0.000000 1.000000
vn 0.000000 0.000000 1.000000
vn 1.000000 0.000000 0.000000
vn 1.000000 0.000000 0.000000
vn 1.000000 0.000000 0.000000
vn 1.000000 0.000000 0.000000
vn 0.000000 -1.000000 0.000000
vn 0.000000 -1.000000 0.000000
vn 0.000000 -1.000000 0.000000
vn 0.000000 -1.000000 0.000000
vn 1.000000 0.000000 0.000000
vn 1.000000 0.000000 0.000000
vn 0.000000 1.000000 0.000000
vn 0.000000 1.000000 0.000000
vn -1.000000 0.000000 0.000000
vn -1.000000 0.000000 0.000000
s off
g WhiteBoard1
usemtl initialShadingGroup
f 9/59/1 10/60/2 11/61/3 12/62/4
s 1
f 3/33/5 4/34/6 6/35/7 5/36/8
s off
f 5/63/9 6/64/10 8/65/11 7/66/12
s 2
f 7/39/13 8/40/14 2/41/15 1/42/16
s 3
f 2/1/17 8/2/18 6/3/19 4/4/20
s 4
f 7/7/21 1/8/22 3/9/23 5/10/24
s 5
f 13/67/25 14/68/26 15/69/27 16/70/28
f 14/68/26 17/71/29 18/72/30 15/69/27
f 17/71/29 19/73/31 20/74/32 18/72/30
f 19/73/31 13/67/25 16/70/28 20/74/32
s 2
f 1/42/16 2/41/15 14/43/33 13/44/34
s 6
f 22/45/35 21/46/36 23/47/37 24/48/38
s 3
f 2/1/17 4/4/20 17/5/39 14/6/40
s off
f 11/13/41 10/14/42 15/15/43 18/16/44
s 1
f 4/34/6 3/33/5 19/37/45 17/38/46
s off
f 12/51/47 11/52/48 18/53/49 20/54/50
s 4
f 3/9/23 1/8/22 13/11/51 19/12/52
s off
f 9/17/53 12/18/54 20/19/55 16/20/56
f 10/75/57 9/76/58 21/77/59 22/78/60
s 7
f 9/21/61 16/22/62 23/23/63 21/24/64
s off
f 25/79/65 26/80/66 27/81/67 28/82/68
s 8
f 15/27/69 10/28/70 22/29/71 24/30/72
s off
f 16/55/73 15/56/74 26/57/75 25/58/76
s 8
f 15/27/69 24/30/72 27/31/77 26/32/78
s 6
f 24/48/38 23/47/37 28/49/79 27/50/80
s 7
f 23/23/63 16/22/62 25/25/81 28/26/82
